<?xml version="1.0" encoding="UTF-8" standalone="no"?>
<!DOCTYPE svg PUBLIC "-//W3C//DTD SVG 1.1//EN" "http://www.w3.org/Graphics/SVG/1.1/DTD/svg11.dtd">
<svg width="100%" height="100%" viewBox="0 0 214 154" version="1.1" xmlns="http://www.w3.org/2000/svg" xmlns:xlink="http://www.w3.org/1999/xlink" xml:space="preserve" xmlns:serif="http://www.serif.com/" style="fill-rule:evenodd;clip-rule:evenodd;stroke-linejoin:round;stroke-miterlimit:2;">
    <g transform="matrix(1,0,0,1,-7,-13)">
        <path d="M154.335,55.791L153.61,57.372C137.961,92.016 133.5,139.329 137.953,157.008C139.855,164.559 143.668,167.27 147.979,164.856C149.003,164.316 149.396,163.046 148.856,162.021C148.316,160.997 147.046,160.604 146.021,161.144C145.199,161.551 144.59,161.167 144.094,160.39C143.435,159.356 142.973,157.843 142.595,155.959C139.162,138.847 146.013,94.028 162.142,61.407C162.483,60.717 162.83,60.034 163.184,59.358C176.255,62.555 192.291,58.89 204.349,52.234C210.736,48.708 215.981,44.446 219.071,40.154C221.661,36.556 222.835,32.887 222.419,29.506C221.998,26.093 220.076,22.788 215.853,20.127C215.613,19.973 215.354,19.848 215.083,19.758C208.254,17.5 201.89,17.194 195.927,18.123C182.22,20.261 170.108,29.613 160.84,43.793C160.038,45.02 159.269,46.286 158.528,47.587C157.796,47.052 157.096,46.465 156.432,45.823C145.748,33.111 134.024,24.512 120.234,19.463C114.327,17.3 108.034,15.771 101.293,14.972C90.047,13.638 77.558,14.227 63.481,16.223C47.682,18.462 29.861,22.631 9.346,28.247C7.827,28.608 6.886,30.134 7.247,31.654C7.608,33.173 9.134,34.114 10.654,33.753C27.312,30.402 42.164,27.942 55.544,26.433C72.55,24.516 87.044,24.445 99.821,26.265C105.729,27.107 111.266,28.307 116.506,30.072C128.83,34.221 139.547,41.241 149.488,52.08C149.576,52.18 149.668,52.277 149.764,52.369C151.176,53.681 152.705,54.819 154.335,55.791ZM167.589,51.512C175.55,53.215 184.901,51.721 193.178,48.771C201.838,45.685 209.447,40.922 213.264,35.871C214.698,33.973 215.624,32.109 215.439,30.29C215.282,28.736 214.275,27.359 212.474,26.095C206.999,24.311 201.853,23.838 197.075,24.749C185.46,26.963 176.683,36.757 169.093,49.039C168.59,49.854 168.087,50.678 167.589,51.512Z"/>
    </g>
    <g transform="matrix(1,0,0,1,-7,-13)">
        <path d="M79.697,43.607C78.926,44.808 78.267,46.036 77.716,47.271C76.735,49.469 76.06,51.674 75.9,53.885C75.869,54.716 76.173,55.524 76.744,56.129C77.315,56.734 78.104,57.084 78.935,57.101C82.592,57.379 86.031,57.2 89.299,56.844C90.252,56.741 91.188,56.621 92.107,56.489C89.967,59.384 88.572,62.663 88.117,66.422C87.949,67.545 88.277,68.685 89.014,69.549C89.75,70.412 90.825,70.915 91.96,70.926C100.343,70.558 106.774,70.061 111.963,69.573C115.319,69.257 118.152,68.974 120.621,68.57C125.741,67.734 129.338,66.619 132.838,65.133C134.015,64.671 134.595,63.34 134.133,62.162C133.671,60.985 132.34,60.405 131.162,60.867C127.076,62.344 122.883,63.348 116.01,63.689C111.287,63.923 105.366,63.786 97.444,63.376C98.474,61.641 99.91,60.142 101.633,58.802C104.547,56.535 108.297,54.781 112.586,53.295C114.639,52.537 115.869,50.431 115.52,48.269C115.17,46.108 113.34,44.497 111.151,44.424C108.781,44.372 106.282,44.63 103.67,45.237C97.635,46.642 90.867,49.685 82.626,50.633C82.734,50.303 82.86,49.975 83.007,49.651C83.963,47.544 85.644,45.638 87.644,43.955C88.332,43.375 89.072,42.836 89.857,42.344C92.886,41.563 96.012,40.238 99.37,38.842C101.403,38.118 102.519,35.935 101.917,33.863C101.316,31.79 99.204,30.545 97.099,31.022L96.631,31.16L96.63,31.158C93.567,32.074 90.658,32.712 87.966,33.378C87.241,33.557 86.538,33.755 85.85,33.949C81.93,35.054 78.519,35.985 75.479,36.088C74.289,36.129 73.16,36.165 72.143,35.919C71.607,35.789 71.123,35.586 70.679,35.338C70.767,35.249 70.852,35.156 70.922,35.053C71.22,34.61 71.615,34.196 72.059,33.765C73.92,31.962 76.736,30.351 80.026,28.928C85.022,26.768 91.034,25.094 96.767,24.152C99.377,23.728 101.153,21.265 100.73,18.655C100.307,16.044 97.844,14.269 95.233,14.692C85.549,16.245 75.172,19.65 68.817,24.02C66.602,25.543 64.746,27.146 63.585,28.91C61.678,31.806 60.97,34.828 61.87,37.792C62.064,38.804 62.622,39.709 63.44,40.336C65.729,41.714 68.374,42.416 71.509,42.884C73.757,43.22 76.212,43.638 79.005,43.618L79.697,43.607Z"/>
    </g>
</svg>
